<svg width="57" height="58" viewBox="0 0 57 58" fill="none" xmlns="http://www.w3.org/2000/svg">
<rect x="0.991577" y="1.96777" width="54.4878" height="54.4878" rx="7" fill="#D9D9D9" stroke="#34383E" stroke-width="2"/>
<rect x="8.69104" y="3.03271" width="39.0889" height="39.0889" rx="7" fill="#D9D9D9" stroke="#34383E" stroke-width="2"/>
<path d="M11.045 39.881L3.36328 54.3131M46.0784 39.415L53.6437 54.7786" stroke="#34383E" stroke-width="2"/>
<path d="M15.4321 15.4878C14.8798 15.4878 14.4321 15.9355 14.4321 16.4878C14.4321 17.0401 14.8798 17.4878 15.4321 17.4878V15.4878ZM41.7459 17.1949C42.1364 16.8044 42.1364 16.1712 41.7459 15.7807L35.382 9.41673C34.9914 9.0262 34.3583 9.0262 33.9678 9.41673C33.5772 9.80725 33.5772 10.4404 33.9678 10.8309L39.6246 16.4878L33.9678 22.1446C33.5772 22.5352 33.5772 23.1683 33.9678 23.5589C34.3583 23.9494 34.9914 23.9494 35.382 23.5589L41.7459 17.1949ZM15.4321 16.4878V17.4878H41.0388V16.4878V15.4878H15.4321V16.4878Z" fill="#34383E"/>
<path d="M22.3281 31.595L26.4451 35.7119L34.679 27.478" stroke="#62D72F" stroke-width="2" stroke-linecap="round" stroke-linejoin="round"/>
</svg>
