<svg width="57" height="58" viewBox="0 0 57 58" fill="none" xmlns="http://www.w3.org/2000/svg">
<rect x="1.521" y="1.96777" width="54.4878" height="54.4878" rx="7" fill="#D9D9D9" stroke="#34383E" stroke-width="2"/>
<rect x="9.22046" y="3.03271" width="39.0889" height="39.0889" rx="7" fill="#D9D9D9" stroke="#34383E" stroke-width="2"/>
<path d="M11.5745 39.881L3.8927 54.3131M46.6078 39.415L54.1732 54.7786" stroke="#34383E" stroke-width="2"/>
<path d="M41.5682 17.4878C42.1205 17.4878 42.5682 17.0401 42.5682 16.4878C42.5682 15.9355 42.1205 15.4878 41.5682 15.4878V17.4878ZM15.2544 15.7807C14.8639 16.1712 14.8639 16.8044 15.2544 17.1949L21.6184 23.5589C22.0089 23.9494 22.6421 23.9494 23.0326 23.5589C23.4231 23.1683 23.4231 22.5352 23.0326 22.1446L17.3758 16.4878L23.0326 10.8309C23.4231 10.4404 23.4231 9.80725 23.0326 9.41673C22.6421 9.0262 22.0089 9.0262 21.6184 9.41673L15.2544 15.7807ZM41.5682 16.4878V15.4878L15.9615 15.4878V16.4878V17.4878L41.5682 17.4878V16.4878Z" fill="#34383E"/>
<path d="M24.6479 27.478L32.8818 35.7119" stroke="#EE7C72" stroke-width="2" stroke-linecap="round" stroke-linejoin="round"/>
<path d="M24.6479 35.7119L32.8818 27.478" stroke="#EE7C72" stroke-width="2" stroke-linecap="round" stroke-linejoin="round"/>
</svg>
